<?xml version="1.0" standalone="no"?>
<!DOCTYPE svg PUBLIC "-//W3C//DTD SVG 20010904//EN"
 "http://www.w3.org/TR/2001/REC-SVG-20010904/DTD/svg10.dtd">
<svg version="1.0" xmlns="http://www.w3.org/2000/svg"
 width="601.000000pt" height="591.000000pt" viewBox="0 0 601.000000 591.000000"
 preserveAspectRatio="xMidYMid meet">

<g transform="translate(0.000000,591.000000) scale(0.100000,-0.100000)"
fill="#000000" stroke="none">
<path d="M2879 5170 c-243 -122 -514 -262 -524 -270 -5 -4 -138 -73 -295 -152
-157 -80 -332 -170 -390 -201 -153 -79 -540 -278 -725 -371 -88 -45 -163 -85
-167 -91 -10 -13 -10 -2297 0 -2310 4 -5 32 -22 62 -37 72 -35 1498 -768 1765
-908 231 -121 393 -200 408 -200 8 0 48 17 89 39 40 21 530 274 1088 561 558
287 1025 529 1038 536 l22 14 0 1149 c0 907 -3 1151 -12 1158 -7 6 -134 72
-283 148 -148 76 -288 148 -310 160 -22 12 -139 73 -260 135 -121 62 -287 147
-370 190 -82 43 -296 153 -475 245 -179 92 -371 191 -426 220 l-102 53 -133
-68z"/>
</g>
</svg>
